<?xml version="1.0" ?>
<svg xmlns="http://www.w3.org/2000/svg" xmlns:xlink="http://www.w3.org/1999/xlink" version="1.1" viewBox="0 0 512 512" style="enable-background:new 0 0 512 512;">
  <defs>
    <filter id="shadow" x="-20%" y="-20%" width="140%" height="140%">
      <feDropShadow dx="0" dy="2" stdDeviation="4" flood-opacity="0.2"/>
    </filter>
  </defs>
  <g>
    <!-- Shadow Effect -->
    <path d="M481,101h-20V41c0-22.056-17.944-40-40-40H91C68.944,1,51,18.944,51,41v60H31c-16.542,0-30,13.458-30,30v40 c0,16.542,13.458,30,30,30h20v210c0,22.056,17.944,40,40,40v40c0,11.028,8.972,20,20,20h40c11.028,0,20-8.972,20-20v-40h170v40 c0,11.028,8.972,20,20,20h40c11.028,0,20-8.972,20-20v-40c22.056,0,40-17.944,40-40V201h20c16.542,0,30-13.458,30-30v-40 C511,114.458,497.542,101,481,101z" 
      fill="none" 
      stroke="#0f172a20" 
      stroke-width="16" 
      transform="translate(0,2)"/>
    
    <!-- Main Bus Body -->
    <path d="M481,101h-20V41c0-22.056-17.944-40-40-40H91C68.944,1,51,18.944,51,41v60H31c-16.542,0-30,13.458-30,30v40 c0,16.542,13.458,30,30,30h20v210c0,22.056,17.944,40,40,40v40c0,11.028,8.972,20,20,20h40c11.028,0,20-8.972,20-20v-40h170v40 c0,11.028,8.972,20,20,20h40c11.028,0,20-8.972,20-20v-40c22.056,0,40-17.944,40-40V201h20c16.542,0,30-13.458,30-30v-40 C511,114.458,497.542,101,481,101z M71,101c24.429,0,355.227,0,370,0c0,41.114,0,144.491,0,190H71C71,271.005,71,123.301,71,101z" 
      fill="#22c55e"/>
    
    <!-- Windows -->
    <path d="M306,81H206V61h100V81z M91,21h330c11.028,0,20,8.972,20,20v40H326V51c0-5.522-4.477-10-10-10H196c-5.523,0-10,4.478-10,10v30H71 V41C71,29.972,79.972,21,91,21z" 
      fill="#dcfce7" 
      stroke="#0f172a" 
      stroke-width="4"/>
    
    <!-- Wheels -->
    <path d="M131,331c-22.056,0-40,17.944-40,40s17.944,40,40,40s40-17.944,40-40S153.056,331,131,331z M381,331c-22.056,0-40,17.944-40,40s17.944,40,40,40c22.056,0,40-17.944,40-40S403.056,331,381,331z" 
      fill="#0f172a" 
      stroke="#0f172a" 
      stroke-width="4"/>
    
    <!-- Front Details -->
    <path d="M311,341H201c-5.523,0-10,4.478-10,10v40c0,5.522,4.477,10,10,10h110c5.523,0,10-4.478,10-10v-40 C321,345.478,316.523,341,311,341z M301,381h-90v-20h90V381z" 
      fill="#22c55e"/>
    
    <!-- Lightning Effect -->
    <path d="M321,161h-46.338l14.913-24.855C293.569,129.49,288.764,121,281,121h-50c-3.788,0-7.251,2.14-8.944,5.528l-40,80 C178.732,213.176,183.582,221,191,221h35.23l-14.514,36.286c-1.727,4.316-0.251,9.254,3.562,11.915 c3.833,2.674,8.975,2.325,12.412-0.769l100-90C334.494,172.309,330.132,161,321,161z" 
      fill="#3b82f6"/>
  </g>
</svg>